<svg xmlns="http://www.w3.org/2000/svg" width="100.00mm" height="100.00mm" viewBox="0 0 139.37 141.97"><defs><style>.cls-1{fill:#fff;stroke:#000;stroke-miterlimit:10;}</style></defs><g id="Layer_2" data-name="Layer 2"><g id="Layer_1-2" data-name="Layer 1"><polyline class="cls-1" points="127.75 131.41 6.92 131.41 6.92 8.5"/><path d="M135.43,140.4l.83,1.25c.21.32.4.62.59.95h0c.19-.35.39-.65.58-1l.81-1.24h1.14l-2,2.81,2,3h-1.2l-.85-1.31c-.23-.34-.42-.66-.62-1h0c-.19.35-.39.66-.61,1l-.84,1.31h-1.16l2.06-3-2-2.84Z" transform="translate(-0.11 -4.24)"/><path d="M1.26,4.24,2.53,7.67c.13.38.28.84.37,1.19h0c.1-.35.22-.8.37-1.21L4.45,4.24H5.56L4,8.38c-.75,2-1.27,3-2,3.63a2.7,2.7,0,0,1-1.29.68l-.27-.88a2.85,2.85,0,0,0,.93-.52,3.27,3.27,0,0,0,.88-1.17.8.8,0,0,0,.09-.26.9.9,0,0,0-.08-.27L.11,4.24Z" transform="translate(-0.11 -4.24)"/><path d="M20.36,107.41a1.5,1.5,0,0,0,0-3,1.5,1.5,0,0,0,0,3Z" transform="translate(-0.11 -4.24)"/><path d="M40.08,95a1.5,1.5,0,0,0,0-3,1.5,1.5,0,0,0,0,3Z" transform="translate(-0.11 -4.24)"/><path d="M63.93,112.45a1.5,1.5,0,0,0,0-3,1.5,1.5,0,0,0,0,3Z" transform="translate(-0.11 -4.24)"/><path d="M88.69,84.94a1.5,1.5,0,0,0,0-3,1.5,1.5,0,0,0,0,3Z" transform="translate(-0.11 -4.24)"/><path d="M116.67,56.5a1.5,1.5,0,0,0,0-3,1.5,1.5,0,0,0,0,3Z" transform="translate(-0.11 -4.24)"/></g></g></svg>
